<svg width="97" height="58" viewBox="0 0 97 58" fill="none" xmlns="http://www.w3.org/2000/svg">
<path d="M0.689941 40.7292V20.6691H6.2998V28.1773H11.5069V32.9344H6.2998V40.7292H0.689941ZM19.073 41.1304C17.5003 41.1304 16.0523 40.8725 14.729 40.3567C13.4056 39.8408 12.2453 39.1149 11.248 38.1787C10.2699 37.2426 9.51229 36.144 8.97527 34.8831C8.43826 33.6031 8.16975 32.2084 8.16975 30.6992C8.16975 29.1899 8.43826 27.8048 8.97527 26.5439C9.51229 25.2638 10.2699 24.1558 11.248 23.2196C12.2453 22.2835 13.4056 21.5575 14.729 21.0417C16.0523 20.5258 17.5003 20.2679 19.073 20.2679C20.6265 20.2679 22.0649 20.5258 23.3883 21.0417C24.7308 21.5575 25.8816 22.2835 26.8405 23.2196C27.8186 24.1558 28.5762 25.2638 29.1132 26.5439C29.6502 27.8048 29.9188 29.1899 29.9188 30.6992C29.9188 32.2084 29.6502 33.6031 29.1132 34.8831C28.5762 36.144 27.8186 37.2426 26.8405 38.1787C25.8816 39.1149 24.7308 39.8408 23.3883 40.3567C22.0649 40.8725 20.6265 41.1304 19.073 41.1304ZM19.0443 36.4306C19.7731 36.4306 20.4443 36.2969 21.0581 36.0294C21.6718 35.762 22.2088 35.3799 22.6691 34.8831C23.1486 34.3864 23.513 33.7846 23.7623 33.0777C24.0308 32.3708 24.165 31.578 24.165 30.6992C24.165 29.8203 24.0308 29.0275 23.7623 28.3206C23.513 27.6137 23.1486 27.0119 22.6691 26.5152C22.2088 26.0185 21.6718 25.6364 21.0581 25.3689C20.4443 25.1014 19.7826 24.9677 19.073 24.9677C18.3442 24.9677 17.673 25.1014 17.0592 25.3689C16.4455 25.6364 15.8989 26.0185 15.4194 26.5152C14.9591 27.0119 14.5947 27.6137 14.3262 28.3206C14.0769 29.0275 13.9522 29.8203 13.9522 30.6992C13.9522 31.578 14.0769 32.3708 14.3262 33.0777C14.5947 33.7846 14.9591 34.3864 15.4194 34.8831C15.8989 35.3799 16.4455 35.762 17.0592 36.0294C17.673 36.2969 18.3346 36.4306 19.0443 36.4306Z" fill="#32CDCD"/>
<path d="M46.462 20.6691H52.1582V40.7292H46.462V20.6691ZM38.6945 40.7292H32.9983V20.6691H38.6945V40.7292ZM46.8648 32.9058H38.2917V28.206H46.8648V32.9058Z" fill="#32CDCD"/>
<path d="M56.4851 40.7292V20.6691H62.095V32.4473L70.4091 20.6691H75.76V40.7292H70.1502V28.9797L61.8648 40.7292H56.4851Z" fill="#32CDCD"/>
<path d="M84.5434 40.7292V23.9074L85.8092 25.1683H78.3582V20.6691H96.3097V25.1683H88.8875L90.1533 23.9074V40.7292H84.5434Z" fill="#32CDCD"/>
<rect x="55.4062" y="10.1138" width="8.196" height="7.17454" transform="rotate(-45 55.4062 10.1138)" fill="#32CDCD"/>
<rect x="62.3604" y="3.21587" width="4.54793" height="7.17454" transform="rotate(-45 62.3604 3.21587)" fill="#32CDCD"/>
<rect x="70.1597" y="8.01016" width="2.40558" height="5.28158" transform="rotate(-45 70.1597 8.01016)" fill="#32CDCD"/>
<rect x="61.6152" y="16.5272" width="9.92955" height="5.29877" transform="rotate(-45 61.6152 16.5272)" fill="#E7505D"/>
<path d="M3.23616 55.5324V49.9294L3.67586 50.3816H0.949707V48.7736H7.46987V50.3816H4.74371L5.18342 49.9294V55.5324H3.23616Z" fill="#30587E"/>
<path d="M11.3982 55.6329C10.678 55.6329 10.0373 55.4822 9.47611 55.1807C8.92334 54.8792 8.48364 54.4688 8.157 53.9495C7.83874 53.4219 7.67961 52.823 7.67961 52.153C7.67961 51.4746 7.83874 50.8758 8.157 50.3565C8.48364 49.8289 8.92334 49.4185 9.47611 49.1253C10.0373 48.8238 10.678 48.6731 11.3982 48.6731C12.1101 48.6731 12.7467 48.8238 13.3078 49.1253C13.869 49.4185 14.3087 49.8247 14.6269 50.3439C14.9452 50.8632 15.1043 51.4662 15.1043 52.153C15.1043 52.823 14.9452 53.4219 14.6269 53.9495C14.3087 54.4688 13.869 54.8792 13.3078 55.1807C12.7467 55.4822 12.1101 55.6329 11.3982 55.6329ZM11.3982 54.0249C11.7249 54.0249 12.018 53.9495 12.2776 53.7988C12.5373 53.648 12.7425 53.4344 12.8932 53.158C13.044 52.8733 13.1194 52.5383 13.1194 52.153C13.1194 51.7594 13.044 51.4244 12.8932 51.148C12.7425 50.8716 12.5373 50.658 12.2776 50.5073C12.018 50.3565 11.7249 50.2811 11.3982 50.2811C11.0716 50.2811 10.7785 50.3565 10.5188 50.5073C10.2592 50.658 10.0498 50.8716 9.89069 51.148C9.73993 51.4244 9.66456 51.7594 9.66456 52.153C9.66456 52.5383 9.73993 52.8733 9.89069 53.158C10.0498 53.4344 10.2592 53.648 10.5188 53.7988C10.7785 53.9495 11.0716 54.0249 11.3982 54.0249Z" fill="#30587E"/>
<path d="M20.4347 55.6329C19.8652 55.6329 19.3669 55.5073 18.9397 55.2561C18.5126 55.0048 18.1776 54.6237 17.9347 54.1128C17.7002 53.5936 17.5829 52.9403 17.5829 52.153C17.5829 51.3574 17.696 50.7041 17.9221 50.1932C18.1483 49.6823 18.4749 49.3012 18.902 49.05C19.3292 48.7987 19.8401 48.6731 20.4347 48.6731C21.0712 48.6731 21.6408 48.8196 22.1433 49.1128C22.6542 49.3975 23.0562 49.7996 23.3493 50.3188C23.6508 50.8381 23.8016 51.4495 23.8016 52.153C23.8016 52.8649 23.6508 53.4805 23.3493 53.9998C23.0562 54.519 22.6542 54.921 22.1433 55.2058C21.6408 55.4906 21.0712 55.6329 20.4347 55.6329ZM16.4397 57.9696V48.7736H18.3116V50.1555L18.2739 52.1656L18.3995 54.1631V57.9696H16.4397ZM20.0955 54.0249C20.4222 54.0249 20.7111 53.9495 20.9624 53.7988C21.222 53.648 21.4272 53.4344 21.5779 53.158C21.7371 52.8733 21.8166 52.5383 21.8166 52.153C21.8166 51.7594 21.7371 51.4244 21.5779 51.148C21.4272 50.8716 21.222 50.658 20.9624 50.5073C20.7111 50.3565 20.4222 50.2811 20.0955 50.2811C19.7689 50.2811 19.4758 50.3565 19.2161 50.5073C18.9565 50.658 18.7513 50.8716 18.6005 51.148C18.4498 51.4244 18.3744 51.7594 18.3744 52.153C18.3744 52.5383 18.4498 52.8733 18.6005 53.158C18.7513 53.4344 18.9565 53.648 19.2161 53.7988C19.4758 53.9495 19.7689 54.0249 20.0955 54.0249Z" fill="#30587E"/>
<path d="M25.1752 55.5324V48.7736H30.5898V50.3816H26.6827L27.1224 49.9545V55.5324H25.1752Z" fill="#30587E"/>
<path d="M34.5121 55.6329C33.7918 55.6329 33.1511 55.4822 32.59 55.1807C32.0372 54.8792 31.5975 54.4688 31.2708 53.9495C30.9526 53.4219 30.7935 52.823 30.7935 52.153C30.7935 51.4746 30.9526 50.8758 31.2708 50.3565C31.5975 49.8289 32.0372 49.4185 32.59 49.1253C33.1511 48.8238 33.7918 48.6731 34.5121 48.6731C35.224 48.6731 35.8605 48.8238 36.4216 49.1253C36.9828 49.4185 37.4225 49.8247 37.7408 50.3439C38.059 50.8632 38.2181 51.4662 38.2181 52.153C38.2181 52.823 38.059 53.4219 37.7408 53.9495C37.4225 54.4688 36.9828 54.8792 36.4216 55.1807C35.8605 55.4822 35.224 55.6329 34.5121 55.6329ZM34.5121 54.0249C34.8387 54.0249 35.1319 53.9495 35.3915 53.7988C35.6511 53.648 35.8563 53.4344 36.0071 53.158C36.1578 52.8733 36.2332 52.5383 36.2332 52.153C36.2332 51.7594 36.1578 51.4244 36.0071 51.148C35.8563 50.8716 35.6511 50.658 35.3915 50.5073C35.1319 50.3565 34.8387 50.2811 34.5121 50.2811C34.1854 50.2811 33.8923 50.3565 33.6327 50.5073C33.373 50.658 33.1637 50.8716 33.0045 51.148C32.8538 51.4244 32.7784 51.7594 32.7784 52.153C32.7784 52.5383 32.8538 52.8733 33.0045 53.158C33.1637 53.4344 33.373 53.648 33.6327 53.7988C33.8923 53.9495 34.1854 54.0249 34.5121 54.0249Z" fill="#30587E"/>
<path d="M39.5661 55.5324V48.7736H43.0209C43.8668 48.7736 44.5285 48.9285 45.0059 49.2384C45.4833 49.5399 45.7219 49.9671 45.7219 50.5198C45.7219 51.0726 45.4958 51.5081 45.0436 51.8264C44.5997 52.1363 44.0092 52.2912 43.2722 52.2912L43.4732 51.8389C44.294 51.8389 44.9054 51.9897 45.3074 52.2912C45.7178 52.5927 45.923 53.0324 45.923 53.6103C45.923 54.205 45.6968 54.674 45.2446 55.0174C44.7923 55.3607 44.1013 55.5324 43.1717 55.5324H39.5661ZM41.3626 54.2008H43.0084C43.3685 54.2008 43.6365 54.1421 43.8124 54.0249C43.9966 53.8993 44.0888 53.7108 44.0888 53.4596C44.0888 53.1999 44.005 53.0115 43.8375 52.8942C43.67 52.7686 43.4062 52.7058 43.046 52.7058H41.3626V54.2008ZM41.3626 51.55H42.845C43.1884 51.55 43.4439 51.4872 43.6114 51.3615C43.7873 51.2359 43.8752 51.0558 43.8752 50.8213C43.8752 50.5785 43.7873 50.3984 43.6114 50.2811C43.4439 50.1639 43.1884 50.1052 42.845 50.1052H41.3626V51.55Z" fill="#30587E"/>
<path d="M54.341 55.5324V48.7736H56.2883V55.5324H54.341ZM50.9365 50.9344C51.8242 50.9428 52.4901 51.1438 52.934 51.5374C53.3862 51.9227 53.6124 52.4713 53.6124 53.1832C53.6124 53.9286 53.3569 54.5107 52.846 54.9294C52.3351 55.3398 51.6107 55.545 50.6726 55.545L47.3811 55.5324V48.7736H49.3284V50.9344H50.9365ZM50.4967 54.1505C50.8736 54.1589 51.1626 54.0793 51.3636 53.9118C51.5646 53.7443 51.6651 53.4931 51.6651 53.158C51.6651 52.823 51.5646 52.5843 51.3636 52.442C51.1626 52.2912 50.8736 52.2116 50.4967 52.2033L49.3284 52.1907V54.1505H50.4967Z" fill="#30587E"/>
<path d="M58.1774 55.5324V48.7736H60.1247V52.7937L63.4162 48.7736H65.2127V55.5324H63.2654V51.5123L59.9865 55.5324H58.1774ZM61.5694 48.0449C60.8324 48.0449 60.2796 47.8858 59.9111 47.5675C59.5426 47.2409 59.3541 46.7509 59.3458 46.0977H60.6272C60.6356 46.3824 60.7151 46.6086 60.8659 46.7761C61.0166 46.9436 61.247 47.0273 61.5568 47.0273C61.8584 47.0273 62.0887 46.9436 62.2478 46.7761C62.4153 46.6086 62.4991 46.3824 62.4991 46.0977H63.8056C63.8056 46.7509 63.6172 47.2409 63.2403 47.5675C62.8634 47.8858 62.3064 48.0449 61.5694 48.0449Z" fill="#30587E"/>
<path d="M75.3028 54.653V50.3816H73.0917L73.054 51.2485C73.0372 51.6086 73.0163 51.952 72.9912 52.2786C72.966 52.6053 72.9158 52.9026 72.8404 53.1706C72.7734 53.4302 72.6729 53.6522 72.5389 53.8364C72.4049 54.0123 72.2248 54.1338 71.9987 54.2008L70.064 53.9244C70.3069 53.9244 70.5037 53.8532 70.6545 53.7108C70.8052 53.5601 70.9225 53.3549 71.0062 53.0952C71.09 52.8272 71.1528 52.5257 71.1947 52.1907C71.2366 51.8473 71.2659 51.4872 71.2826 51.1103L71.3706 48.7736H77.2626V54.653H75.3028ZM69.8379 56.9897V53.9244H78.2299V56.9897H76.4083V55.5324H71.6595V56.9897H69.8379Z" fill="#30587E"/>
<path d="M82.6291 55.6329C81.9088 55.6329 81.2681 55.4822 80.707 55.1807C80.1542 54.8792 79.7145 54.4688 79.3879 53.9495C79.0696 53.4219 78.9105 52.823 78.9105 52.153C78.9105 51.4746 79.0696 50.8758 79.3879 50.3565C79.7145 49.8289 80.1542 49.4185 80.707 49.1253C81.2681 48.8238 81.9088 48.6731 82.6291 48.6731C83.341 48.6731 83.9775 48.8238 84.5387 49.1253C85.0998 49.4185 85.5395 49.8247 85.8578 50.3439C86.176 50.8632 86.3352 51.4662 86.3352 52.153C86.3352 52.823 86.176 53.4219 85.8578 53.9495C85.5395 54.4688 85.0998 54.8792 84.5387 55.1807C83.9775 55.4822 83.341 55.6329 82.6291 55.6329ZM82.6291 54.0249C82.9557 54.0249 83.2489 53.9495 83.5085 53.7988C83.7681 53.648 83.9733 53.4344 84.1241 53.158C84.2749 52.8733 84.3502 52.5383 84.3502 52.153C84.3502 51.7594 84.2749 51.4244 84.1241 51.148C83.9733 50.8716 83.7681 50.658 83.5085 50.5073C83.2489 50.3565 82.9557 50.2811 82.6291 50.2811C82.3025 50.2811 82.0093 50.3565 81.7497 50.5073C81.4901 50.658 81.2807 50.8716 81.1216 51.148C80.9708 51.4244 80.8954 51.7594 80.8954 52.153C80.8954 52.5383 80.9708 52.8733 81.1216 53.158C81.2807 53.4344 81.4901 53.648 81.7497 53.7988C82.0093 53.9495 82.3025 54.0249 82.6291 54.0249Z" fill="#30587E"/>
<path d="M87.6831 55.5324V48.7736H89.7309L92.2812 53.3967H91.4646L94.1907 48.7736H96.0249L96.05 55.5324H94.2787V50.7836L94.5802 50.9847L92.256 54.8792H91.4269L89.0902 50.8465L89.4545 50.7585V55.5324H87.6831Z" fill="#30587E"/>
</svg>
